<svg width="16" height="16" viewBox="0 0 16 16" fill="none" xmlns="http://www.w3.org/2000/svg">
<path d="M1.13588 12.091C1.29447 13.5312 2.4487 14.6851 3.88818 14.8497C5.22216 15.0023 6.59645 15.1431 8.00028 15.1431C9.40411 15.1431 10.7784 15.0023 12.1124 14.8497C13.5519 14.6851 14.7061 13.5312 14.8647 12.091C15.0108 10.7639 15.1431 9.39674 15.1431 8.00028C15.1431 6.60381 15.0108 5.23667 14.8647 3.90952C14.7061 2.46936 13.5519 1.31546 12.1124 1.15083C10.7784 0.99827 9.40411 0.857422 8.00028 0.857422C6.59645 0.857422 5.22216 0.99827 3.88818 1.15083C2.44869 1.31546 1.29446 2.46936 1.13588 3.90952C0.989736 5.23667 0.857422 6.60381 0.857422 8.00028C0.857422 9.39674 0.989736 10.7639 1.13588 12.091Z" fill="white"/>
<path d="M8.00024 5.14314V10.8574M10.8574 8.00029H5.14314M8.00028 15.1431C6.59645 15.1431 5.22216 15.0023 3.88818 14.8497C2.4487 14.6851 1.29447 13.5312 1.13588 12.091C0.989736 10.7639 0.857422 9.39674 0.857422 8.00028C0.857422 6.60381 0.989736 5.23667 1.13588 3.90952C1.29446 2.46936 2.44869 1.31546 3.88818 1.15083C5.22216 0.99827 6.59645 0.857422 8.00028 0.857422C9.40411 0.857422 10.7784 0.99827 12.1124 1.15083C13.5519 1.31546 14.7061 2.46936 14.8647 3.90952C15.0108 5.23667 15.1431 6.60381 15.1431 8.00028C15.1431 9.39674 15.0108 10.7639 14.8647 12.091C14.7061 13.5312 13.5519 14.6851 12.1124 14.8497C10.7784 15.0023 9.40411 15.1431 8.00028 15.1431Z" stroke="#06231C" stroke-width="1.5" stroke-linecap="round"/>
</svg>
