<svg width="16" height="17" viewBox="0 0 16 17" fill="none" xmlns="http://www.w3.org/2000/svg">
<path d="M4.81401 2.2766C5.8272 1.66971 6.98603 1.349 8.16708 1.34863C9.14972 1.34805 10.1198 1.56927 11.005 1.9958C11.8903 2.42233 12.6678 3.04316 13.2797 3.81203C13.8916 4.58089 14.3221 5.47795 14.539 6.43634C14.756 7.39473 14.7538 8.38972 14.5327 9.34715C14.3116 10.3046 13.8772 11.1998 13.262 11.9659C12.6467 12.7321 11.8665 13.3496 10.9794 13.7722C10.0923 14.1949 9.12122 14.4119 8.1386 14.407C7.31848 14.403 6.50794 14.2444 5.74899 13.9413L1.81382 14.5965C1.58122 14.6353 1.3911 14.4124 1.46601 14.1888L2.49697 11.1117C1.98844 10.2197 1.69635 9.2184 1.64728 8.18861C1.59107 7.0089 1.8559 5.83604 2.41356 4.79494C2.97122 3.75384 3.80082 2.88349 4.81401 2.2766Z" stroke="#06231C" stroke-width="1.5" stroke-linecap="round" stroke-linejoin="round"/>
</svg>
