<svg width="25" height="24" viewBox="0 0 25 24" fill="none" xmlns="http://www.w3.org/2000/svg">
<path d="M7.72041 3.39195C9.24019 2.48162 10.9784 2.00055 12.75 2C14.224 1.99913 15.6791 2.33096 17.007 2.97075C18.3348 3.61054 19.5011 4.5418 20.419 5.69509C21.3368 6.84839 21.9825 8.19398 22.308 9.63156C22.6334 11.0691 22.6301 12.5616 22.2984 13.9978C21.9668 15.4339 21.3152 16.7767 20.3923 17.926C19.4694 19.0752 18.2991 20.0014 16.9684 20.6354C15.6378 21.2694 14.1812 21.5949 12.7073 21.5876C11.4771 21.5815 10.2613 21.3437 9.12288 20.889L3.22012 21.8719C2.87122 21.93 2.58604 21.5956 2.6984 21.2603L4.24484 16.6446C3.48204 15.3067 3.04391 13.8046 2.97031 12.26C2.886 10.4904 3.28324 8.73111 4.11973 7.16946C4.95621 5.60781 6.20062 4.30229 7.72041 3.39195Z" stroke="#06231C" stroke-width="1.87591" stroke-linecap="round" stroke-linejoin="round"/>
</svg>
