<svg width="13" height="12" viewBox="0 0 13 12" fill="currentColor" xmlns="http://www.w3.org/2000/svg">
<path d="M3.35913 5.9165L3.9202 5.95656C3.94056 5.67138 3.74375 5.41629 3.46274 5.36363L3.35913 5.9165ZM4.5995 2.12403L4.40654 2.6524C4.64999 2.74131 4.92267 2.65237 5.06688 2.43701L4.5995 2.12403ZM8.39734 2.12514L7.92975 2.43781C8.07405 2.65362 8.34731 2.74263 8.59104 2.65323L8.39734 2.12514ZM9.64087 5.91648L9.53723 5.36361C9.25623 5.41629 9.05944 5.67137 9.0798 5.95653L9.64087 5.91648ZM9.5362 9.68896L10.0962 9.74213V9.74213L9.5362 9.68896ZM9.50563 10.013L8.94555 9.96083V9.96083L9.50563 10.013ZM8.78571 10.7399L8.7376 10.1795H8.7376L8.78571 10.7399ZM4.21429 10.7399L4.2624 10.1795H4.2624L4.21429 10.7399ZM3.49437 10.013L2.93429 10.0651H2.93429L3.49437 10.013ZM3.46381 9.68896L4.02379 9.63578L3.46381 9.68896ZM9.63032 8.62788L10.1912 8.6708L10.2363 8.08151L9.64547 8.06559L9.63032 8.62788ZM3.36966 8.62789L3.35451 8.06559L2.76371 8.08151L2.8088 8.6708L3.36966 8.62789ZM3.46274 5.36363C2.70034 5.22076 2.18945 4.62086 2.18945 3.97015H1.06445C1.06445 5.2396 2.04081 6.24174 3.25552 6.46938L3.46274 5.36363ZM2.18945 3.97015C2.18945 3.22913 2.86128 2.54593 3.79634 2.54593V1.42093C2.33515 1.42093 1.06445 2.51671 1.06445 3.97015H2.18945ZM3.79634 2.54593C4.01392 2.54593 4.21965 2.58415 4.40654 2.6524L4.79245 1.59566C4.48253 1.48248 4.14623 1.42093 3.79634 1.42093V2.54593ZM5.06688 2.43701C5.35017 2.01397 5.87584 1.7124 6.49805 1.7124V0.587402C5.51359 0.587402 4.63141 1.06543 4.13211 1.81105L5.06688 2.43701ZM6.49805 1.7124C7.12066 1.7124 7.64658 2.01435 7.92975 2.43781L8.86493 1.81247C8.3658 1.06603 7.48312 0.587402 6.49805 0.587402V1.7124ZM8.59104 2.65323C8.77854 2.58446 8.98505 2.54593 9.20351 2.54593V1.42093C8.8522 1.42093 8.51459 1.48298 8.20364 1.59704L8.59104 2.65323ZM9.20351 2.54593C10.1386 2.54593 10.8104 3.22913 10.8104 3.97015H11.9354C11.9354 2.51671 10.6647 1.42093 9.20351 1.42093V2.54593ZM10.8104 3.97015C10.8104 4.62083 10.2996 5.22069 9.53723 5.36361L9.74452 6.46934C10.9591 6.24164 11.9354 5.23953 11.9354 3.97015H10.8104ZM10.254 7.20097C10.254 6.7497 10.2327 6.30709 10.2019 5.87642L9.0798 5.95653C9.10932 6.36994 9.12896 6.78443 9.12896 7.20097H10.254ZM10.0962 9.74213C10.172 8.94313 10.254 8.08478 10.254 7.20097H9.12896C9.12896 8.02304 9.05281 8.82915 8.97622 9.63578L10.0962 9.74213ZM10.0657 10.0651C10.0757 9.95826 10.0859 9.85077 10.0962 9.74213L8.97622 9.63578C8.96592 9.74424 8.95561 9.85277 8.94555 9.96083L10.0657 10.0651ZM8.83382 11.3004C9.50075 11.2431 10.0058 10.7084 10.0657 10.0651L8.94555 9.96083C8.93394 10.0856 8.83922 10.1708 8.7376 10.1795L8.83382 11.3004ZM4.16618 11.3004C5.76708 11.4378 7.23292 11.4378 8.83383 11.3004L8.7376 10.1795C7.20073 10.3114 5.79927 10.3114 4.2624 10.1795L4.16618 11.3004ZM2.93429 10.0651C2.99418 10.7084 3.49925 11.2431 4.16618 11.3004L4.2624 10.1795C4.16078 10.1708 4.06606 10.0856 4.05445 9.96083L2.93429 10.0651ZM2.90382 9.74213C2.91414 9.85077 2.92435 9.95826 2.93429 10.0651L4.05445 9.96083C4.04439 9.85277 4.03409 9.74424 4.02379 9.63578L2.90382 9.74213ZM2.74604 7.20097C2.74604 8.08478 2.82795 8.94313 2.90382 9.74213L4.02379 9.63578C3.94719 8.82916 3.87104 8.02304 3.87104 7.20097H2.74604ZM2.79805 5.87645C2.76731 6.30711 2.74604 6.74971 2.74604 7.20097H3.87104C3.87104 6.78444 3.89068 6.36996 3.9202 5.95656L2.79805 5.87645ZM9.06946 8.58497C9.04247 8.93774 9.00937 9.28665 8.97622 9.63578L10.0962 9.74213C10.1292 9.39453 10.1633 9.03549 10.1912 8.6708L9.06946 8.58497ZM4.02379 9.63578C3.99063 9.28661 3.95751 8.93774 3.93052 8.58497L2.8088 8.6708C2.8367 9.03551 2.87082 9.39456 2.90382 9.74213L4.02379 9.63578ZM6.50002 8.01155C5.4212 8.01155 4.36777 8.03829 3.35451 8.06559L3.38481 9.19018C4.39848 9.16287 5.4381 9.13655 6.50002 9.13655V8.01155ZM9.64547 8.06559C8.63222 8.03829 7.57882 8.01155 6.50002 8.01155V9.13655C7.56192 9.13655 8.60152 9.16287 9.61517 9.19018L9.64547 8.06559Z" fill="currentColor"/>
</svg>
