<svg width="25" height="24" viewBox="0 0 25 24" fill="none" xmlns="http://www.w3.org/2000/svg">
<path d="M18.0914 3.12236C17.5752 2.9262 16.9976 3.1857 16.8015 3.70197C16.6053 4.21824 16.8648 4.79579 17.3811 4.99195C18.556 5.43837 19.3883 6.57458 19.3883 7.90268C19.3883 9.62159 17.9948 11.015 16.2759 11.015C15.7236 11.015 15.2759 11.4628 15.2759 12.015C15.2759 12.5673 15.7236 13.015 16.2759 13.015C19.0994 13.015 21.3883 10.7262 21.3883 7.90268C21.3883 5.71698 20.0171 3.85403 18.0914 3.12236Z" fill="#06231C"/>
<path d="M20.5283 15.9137C20.0219 15.6933 19.4327 15.9251 19.2123 16.4315C18.992 16.938 19.2238 17.5271 19.7302 17.7475C20.2939 17.9929 20.8318 18.2869 21.3386 18.6244C21.6689 18.8444 21.7956 19.0672 21.8413 19.2342C21.8885 19.4068 21.8734 19.6085 21.7701 19.8238C21.5587 20.2647 20.9825 20.7158 20.1293 20.7158H13.8935C13.3412 20.7158 12.8935 21.1636 12.8935 21.7158C12.8935 22.2681 13.3412 22.7158 13.8935 22.7158H20.1293C21.6929 22.7158 23.0044 21.875 23.5734 20.6889C23.8603 20.0907 23.9588 19.3953 23.7704 18.7066C23.5805 18.0123 23.1227 17.4096 22.4472 16.9598C21.8431 16.5574 21.2013 16.2066 20.5283 15.9137Z" fill="#06231C"/>
<path d="M16.1841 17.4628L15.6297 18.2951L16.1841 17.4628ZM2.52216 17.4628L3.07649 18.2951L2.52216 17.4628ZM12.8138 6.74205C12.8138 8.65172 11.2657 10.1998 9.35604 10.1998V12.1998C12.3703 12.1998 14.8138 9.75629 14.8138 6.74205H12.8138ZM9.35604 10.1998C7.44637 10.1998 5.89828 8.65172 5.89828 6.74205H3.89828C3.89828 9.75629 6.3418 12.1998 9.35604 12.1998V10.1998ZM5.89828 6.74205C5.89828 4.83239 7.44637 3.2843 9.35604 3.2843V1.2843C6.3418 1.2843 3.89828 3.72782 3.89828 6.74205H5.89828ZM9.35604 3.2843C11.2657 3.2843 12.8138 4.83239 12.8138 6.74205H14.8138C14.8138 3.72782 12.3703 1.2843 9.35604 1.2843V3.2843ZM4.43391 22.7161H14.2723V20.7161H4.43391V22.7161ZM3.07649 18.2951C4.87327 17.0984 7.03023 16.4009 9.35312 16.4009V14.4009C6.6236 14.4009 4.08279 15.2219 1.96783 16.6305L3.07649 18.2951ZM9.35312 16.4009C11.676 16.4009 13.833 17.0984 15.6297 18.2951L16.7384 16.6305C14.6235 15.2219 12.0826 14.4009 9.35312 14.4009V16.4009ZM14.2723 22.7161C15.9374 22.7161 17.3282 21.821 17.93 20.5666C18.2333 19.9342 18.3365 19.2011 18.1383 18.4762C17.9385 17.7457 17.4561 17.1085 16.7384 16.6305L15.6297 18.2951C16.0023 18.5432 16.1536 18.8007 16.2091 19.0038C16.2662 19.2126 16.2464 19.4521 16.1267 19.7015C15.8825 20.2107 15.2271 20.7161 14.2723 20.7161V22.7161ZM4.43391 20.7161C3.47916 20.7161 2.82376 20.2107 2.57951 19.7015C2.45984 19.4521 2.44003 19.2126 2.49713 19.0038C2.55268 18.8007 2.70389 18.5432 3.07649 18.2951L1.96783 16.6305C1.25017 17.1085 0.767735 17.7457 0.567965 18.4762C0.369736 19.2011 0.47292 19.9342 0.776271 20.5666C1.37805 21.821 2.76879 22.7161 4.43391 22.7161V20.7161Z" fill="#06231C"/>
</svg>
