<svg width="12" height="12" viewBox="0 0 12 12" fill="currentColor" xmlns="http://www.w3.org/2000/svg">
<path fill-rule="evenodd" clip-rule="evenodd" d="M2.76259 0.0805664C2.36121 0.0805664 1.97397 0.117245 1.61654 0.157087C0.880831 0.239091 0.291045 0.827567 0.212027 1.56613C0.173939 1.92213 0.139648 2.30593 0.139648 2.70351C0.139648 3.10108 0.173939 3.48488 0.212027 3.84088C0.291045 4.57945 0.880831 5.16792 1.61654 5.24993C1.97397 5.28977 2.36121 5.32645 2.76259 5.32645C3.16397 5.32645 3.55121 5.28977 3.90864 5.24993C4.64435 5.16792 5.23413 4.57945 5.31315 3.84088C5.35124 3.48488 5.38553 3.10108 5.38553 2.70351C5.38553 2.30593 5.35124 1.92213 5.31315 1.56613C5.23413 0.827568 4.64435 0.239092 3.90864 0.157087C3.55121 0.117245 3.16397 0.0805664 2.76259 0.0805664ZM1.74116 1.27516C2.08892 1.2364 2.42575 1.20557 2.76259 1.20557C3.09943 1.20557 3.43625 1.2364 3.78402 1.27516C3.99773 1.29898 4.17193 1.47449 4.19453 1.68581C4.23147 2.03102 4.26053 2.36713 4.26053 2.70351C4.26053 3.03988 4.23147 3.37599 4.19453 3.72121C4.17193 3.93252 3.99773 4.10803 3.78402 4.13185C3.43625 4.17061 3.09943 4.20145 2.76259 4.20145C2.42575 4.20145 2.08892 4.17061 1.74116 4.13185C1.52745 4.10803 1.35325 3.93252 1.33064 3.72121C1.29371 3.37599 1.26465 3.03988 1.26465 2.70351C1.26465 2.36713 1.29371 2.03102 1.33064 1.68581C1.35325 1.47449 1.52745 1.29898 1.74116 1.27516Z" fill="currentColor"/>
<path fill-rule="evenodd" clip-rule="evenodd" d="M9.23674 0.0805664C8.83536 0.0805664 8.44812 0.117245 8.09069 0.157086C7.35498 0.239091 6.7652 0.827567 6.68618 1.56613C6.64809 1.92213 6.6138 2.30593 6.6138 2.70351C6.6138 3.10108 6.64809 3.48488 6.68618 3.84088C6.7652 4.57945 7.35498 5.16792 8.09069 5.24993C8.44812 5.28977 8.83536 5.32645 9.23674 5.32645C9.63812 5.32645 10.0254 5.28977 10.3828 5.24993C11.1185 5.16792 11.7083 4.57945 11.7873 3.84088C11.8254 3.48488 11.8597 3.10108 11.8597 2.70351C11.8597 2.30593 11.8254 1.92213 11.7873 1.56613C11.7083 0.827568 11.1185 0.239091 10.3828 0.157086C10.0254 0.117245 9.63812 0.0805664 9.23674 0.0805664ZM8.21531 1.27516C8.56308 1.2364 8.8999 1.20557 9.23674 1.20557C9.57358 1.20557 9.91041 1.2364 10.2582 1.27516C10.4719 1.29898 10.6461 1.47449 10.6687 1.68581C10.7056 2.03102 10.7347 2.36713 10.7347 2.70351C10.7347 3.03988 10.7056 3.37599 10.6687 3.7212C10.6461 3.93252 10.4719 4.10803 10.2582 4.13185C9.91041 4.17061 9.57358 4.20145 9.23674 4.20145C8.8999 4.20145 8.56308 4.17061 8.21531 4.13185C8.0016 4.10803 7.8274 3.93252 7.8048 3.7212C7.76786 3.37599 7.7388 3.03988 7.7388 2.70351C7.7388 2.36713 7.76786 2.03102 7.8048 1.68581C7.8274 1.47449 8.0016 1.29898 8.21531 1.27516Z" fill="currentColor"/>
<path fill-rule="evenodd" clip-rule="evenodd" d="M1.61654 6.75049C1.97397 6.71065 2.36121 6.67397 2.76259 6.67397C3.16397 6.67397 3.55121 6.71065 3.90864 6.75049C4.64435 6.8325 5.23413 7.42097 5.31315 8.15953C5.35124 8.51554 5.38553 8.89934 5.38553 9.29691C5.38553 9.69448 5.35124 10.0783 5.31315 10.4343C5.23413 11.1729 4.64435 11.7613 3.90864 11.8433C3.55121 11.8832 3.16397 11.9199 2.76259 11.9199C2.36121 11.9199 1.97397 11.8832 1.61654 11.8433C0.880831 11.7613 0.291045 11.1729 0.212027 10.4343C0.173939 10.0783 0.139648 9.69448 0.139648 9.29691C0.139648 8.89934 0.173939 8.51554 0.212027 8.15953C0.291045 7.42097 0.880831 6.8325 1.61654 6.75049ZM2.76259 7.79897C2.42575 7.79897 2.08892 7.8298 1.74116 7.86857C1.52745 7.89239 1.35325 8.0679 1.33064 8.27921C1.29371 8.62443 1.26465 8.96054 1.26465 9.29691C1.26465 9.63329 1.29371 9.9694 1.33064 10.3146C1.35325 10.5259 1.52745 10.7014 1.74116 10.7253C2.08892 10.764 2.42575 10.7949 2.76259 10.7949C3.09943 10.7949 3.43625 10.764 3.78402 10.7253C3.99773 10.7014 4.17193 10.5259 4.19453 10.3146C4.23147 9.96939 4.26053 9.63329 4.26053 9.29691C4.26053 8.96054 4.23147 8.62443 4.19453 8.27921C4.17193 8.0679 3.99773 7.89239 3.78402 7.86857C3.43625 7.8298 3.09943 7.79897 2.76259 7.79897Z" fill="currentColor"/>
<path fill-rule="evenodd" clip-rule="evenodd" d="M9.23674 6.67397C8.83536 6.67397 8.44812 6.71065 8.09069 6.75049C7.35498 6.8325 6.7652 7.42097 6.68618 8.15953C6.64809 8.51554 6.6138 8.89934 6.6138 9.29691C6.6138 9.69448 6.64809 10.0783 6.68618 10.4343C6.7652 11.1729 7.35498 11.7613 8.09069 11.8433C8.44812 11.8832 8.83536 11.9199 9.23674 11.9199C9.63812 11.9199 10.0254 11.8832 10.3828 11.8433C11.1185 11.7613 11.7083 11.1729 11.7873 10.4343C11.8254 10.0783 11.8597 9.69448 11.8597 9.29691C11.8597 8.89934 11.8254 8.51554 11.7873 8.15953C11.7083 7.42097 11.1185 6.8325 10.3828 6.75049C10.0254 6.71065 9.63812 6.67397 9.23674 6.67397ZM8.21531 7.86857C8.56308 7.8298 8.8999 7.79897 9.23674 7.79897C9.57358 7.79897 9.91041 7.8298 10.2582 7.86857C10.4719 7.89239 10.6461 8.0679 10.6687 8.27921C10.7056 8.62443 10.7347 8.96054 10.7347 9.29691C10.7347 9.63329 10.7056 9.96939 10.6687 10.3146C10.6461 10.5259 10.4719 10.7014 10.2582 10.7253C9.91041 10.764 9.57358 10.7949 9.23674 10.7949C8.8999 10.7949 8.56308 10.764 8.21531 10.7253C8.0016 10.7014 7.8274 10.5259 7.8048 10.3146C7.76786 9.9694 7.7388 9.63329 7.7388 9.29691C7.7388 8.96054 7.76786 8.62443 7.8048 8.27921C7.8274 8.0679 8.0016 7.89239 8.21531 7.86857Z" fill="currentColor"/>
</svg>
