<svg width="7" height="11" viewBox="0 0 7 11" fill="currentColor" xmlns="http://www.w3.org/2000/svg">
<path d="M6.44234 7.468C6.44234 8.872 5.41034 9.832 3.87434 9.952V10.744H3.13034V9.952C2.09834 9.856 1.17434 9.4 0.478344 8.656L1.10234 7.924C1.65434 8.536 2.36234 8.932 3.13034 9.028V5.968C1.79834 5.5 0.790344 5.008 0.790344 3.664C0.790344 2.368 1.72634 1.48 3.13034 1.348V0.555999H3.87434V1.36C4.76234 1.444 5.62634 1.816 6.28634 2.404L5.67434 3.136C5.19434 2.668 4.53434 2.356 3.87434 2.272V5.092H3.88634C5.37434 5.572 6.44234 6.04 6.44234 7.468ZM1.87034 3.568C1.87034 4.288 2.38634 4.588 3.13034 4.84V2.272C2.36234 2.392 1.87034 2.872 1.87034 3.568ZM3.87434 9.028C4.77434 8.92 5.35034 8.404 5.35034 7.6C5.35034 6.808 4.77434 6.532 3.87434 6.22V9.028Z" fill="currentColor"/>
</svg>
