<svg width="16" height="16" viewBox="0 0 16 16" fill="none" xmlns="http://www.w3.org/2000/svg">
<path d="M1.24664 5.6927H8.09441C8.30319 6.44276 8.84043 7.06481 9.56248 7.39237C10.2845 7.72009 11.1178 7.72009 11.8399 7.39237C12.562 7.0648 13.0992 6.44276 13.308 5.6927H14.7531C14.9945 5.6927 15.2174 5.56703 15.338 5.36307C15.4586 5.15911 15.4586 4.90776 15.338 4.7038C15.2174 4.49984 14.9944 4.37417 14.7531 4.37417H13.308C13.0992 3.62411 12.562 3.00206 11.8399 2.6745C11.1178 2.34678 10.2845 2.34678 9.56248 2.6745C8.84043 3.00207 8.30318 3.62411 8.09441 4.37417H1.24664C1.0053 4.37417 0.782366 4.49984 0.661772 4.7038C0.541179 4.90776 0.541179 5.15911 0.661772 5.36307C0.782366 5.56703 1.00531 5.6927 1.24664 5.6927ZM10.7011 3.7149C11.0593 3.7149 11.4029 3.85382 11.6562 4.10104C11.9095 4.34842 12.0518 4.6838 12.0518 5.03344C12.0518 5.38307 11.9095 5.71847 11.6562 5.96583C11.4029 6.21305 11.0593 6.35197 10.7011 6.35197C10.343 6.35197 9.99943 6.21305 9.74605 5.96583C9.49281 5.71846 9.35051 5.38307 9.35051 5.03344C9.35051 4.6838 9.49281 4.3484 9.74605 4.10104C9.99945 3.85382 10.343 3.7149 10.7011 3.7149ZM14.7531 10.3076H7.90532C7.69654 9.55752 7.1593 8.93547 6.43724 8.60791C5.71519 8.28019 4.88188 8.28019 4.15983 8.60791C3.43777 8.93548 2.90052 9.55752 2.69175 10.3076H1.2466C1.00526 10.3076 0.782327 10.4332 0.661734 10.6372C0.541141 10.8412 0.541141 11.0925 0.661734 11.2965C0.782327 11.5004 1.00527 11.6261 1.2466 11.6261H2.69175C2.90053 12.3762 3.43777 12.9982 4.15983 13.3258C4.88188 13.6535 5.71519 13.6535 6.43724 13.3258C7.1593 12.9982 7.69654 12.3762 7.90532 11.6261H14.7531C14.9944 11.6261 15.2174 11.5004 15.3379 11.2965C15.4585 11.0925 15.4585 10.8412 15.3379 10.6372C15.2174 10.4332 14.9944 10.3076 14.7531 10.3076ZM5.29857 12.2854C4.94041 12.2854 4.59686 12.1465 4.34347 11.8992C4.09023 11.6519 3.94793 11.3165 3.94793 10.9668C3.94793 10.6172 4.09023 10.2818 4.34347 10.0344C4.59687 9.78722 4.94042 9.64831 5.29857 9.64831C5.65672 9.64831 6.00029 9.78722 6.25367 10.0344C6.50692 10.2818 6.64922 10.6172 6.64922 10.9668C6.64922 11.3165 6.50692 11.6519 6.25367 11.8992C6.00028 12.1465 5.65672 12.2854 5.29857 12.2854Z" fill="#06231C"/>
<path d="M1.24664 5.6927H8.09441C8.30319 6.44276 8.84043 7.06481 9.56248 7.39237C10.2845 7.72009 11.1178 7.72009 11.8399 7.39237C12.562 7.0648 13.0992 6.44276 13.308 5.6927H14.7531C14.9945 5.6927 15.2174 5.56703 15.338 5.36307C15.4586 5.15911 15.4586 4.90776 15.338 4.7038C15.2174 4.49984 14.9944 4.37417 14.7531 4.37417H13.308C13.0992 3.62411 12.562 3.00206 11.8399 2.6745C11.1178 2.34678 10.2845 2.34678 9.56248 2.6745C8.84043 3.00207 8.30318 3.62411 8.09441 4.37417H1.24664C1.0053 4.37417 0.782366 4.49984 0.661772 4.7038C0.541179 4.90776 0.541179 5.15911 0.661772 5.36307C0.782366 5.56703 1.00531 5.6927 1.24664 5.6927ZM10.7011 3.7149C11.0593 3.7149 11.4029 3.85382 11.6562 4.10104C11.9095 4.34842 12.0518 4.6838 12.0518 5.03344C12.0518 5.38307 11.9095 5.71847 11.6562 5.96583C11.4029 6.21305 11.0593 6.35197 10.7011 6.35197C10.343 6.35197 9.99943 6.21305 9.74605 5.96583C9.49281 5.71846 9.35051 5.38307 9.35051 5.03344C9.35051 4.6838 9.49281 4.3484 9.74605 4.10104C9.99945 3.85382 10.343 3.7149 10.7011 3.7149ZM14.7531 10.3076H7.90532C7.69654 9.55752 7.1593 8.93547 6.43724 8.60791C5.71519 8.28019 4.88188 8.28019 4.15983 8.60791C3.43777 8.93548 2.90052 9.55752 2.69175 10.3076H1.2466C1.00526 10.3076 0.782327 10.4332 0.661734 10.6372C0.541141 10.8412 0.541141 11.0925 0.661734 11.2965C0.782327 11.5004 1.00527 11.6261 1.2466 11.6261H2.69175C2.90053 12.3762 3.43777 12.9982 4.15983 13.3258C4.88188 13.6535 5.71519 13.6535 6.43724 13.3258C7.1593 12.9982 7.69654 12.3762 7.90532 11.6261H14.7531C14.9944 11.6261 15.2174 11.5004 15.3379 11.2965C15.4585 11.0925 15.4585 10.8412 15.3379 10.6372C15.2174 10.4332 14.9944 10.3076 14.7531 10.3076ZM5.29857 12.2854C4.94041 12.2854 4.59686 12.1465 4.34347 11.8992C4.09023 11.6519 3.94793 11.3165 3.94793 10.9668C3.94793 10.6172 4.09023 10.2818 4.34347 10.0344C4.59687 9.78722 4.94042 9.64831 5.29857 9.64831C5.65672 9.64831 6.00029 9.78722 6.25367 10.0344C6.50692 10.2818 6.64922 10.6172 6.64922 10.9668C6.64922 11.3165 6.50692 11.6519 6.25367 11.8992C6.00028 12.1465 5.65672 12.2854 5.29857 12.2854Z" stroke="#06231C"/>
</svg>
