<svg width="16" height="17" viewBox="0 0 16 17" fill="none" xmlns="http://www.w3.org/2000/svg">
<path d="M4.70031 12.956H4.00028V6.41725H4.70031L7.48023 1.59367C7.7372 1.1478 8.21266 0.873047 8.72727 0.873047C9.60147 0.873047 10.2738 1.64598 10.1527 2.51175L9.88465 4.42814H12.1595C13.154 4.42814 15.1431 5.42269 15.1431 7.4118C15.1431 9.40091 13.1431 13.9506 11.0275 13.9506C8.24275 13.9506 5.86063 13.2875 4.70031 12.956Z" stroke="#06231C" stroke-width="1.5" stroke-linejoin="round"/>
<path d="M0.857422 6.15876C0.857422 5.29088 1.56097 4.58733 2.42885 4.58733C3.29673 4.58733 4.00028 5.29089 4.00028 6.15876V12.7302C4.00028 13.5981 3.29673 14.3016 2.42885 14.3016C1.56097 14.3016 0.857422 13.5981 0.857422 12.7302V6.15876Z" stroke="#06231C" stroke-width="1.5" stroke-linejoin="round"/>
</svg>
