<svg width="12" height="12" viewBox="0 0 12 12" fill="currentColor" xmlns="http://www.w3.org/2000/svg">
<path d="M0.147461 2.5C0.147461 2.18934 0.399301 1.9375 0.709961 1.9375H11.2903C11.601 1.9375 11.8528 2.18934 11.8528 2.5C11.8528 2.81066 11.601 3.0625 11.2903 3.0625H0.709961C0.399301 3.0625 0.147461 2.81066 0.147461 2.5Z" fill="currentColor"/>
<path d="M0.147461 6C0.147461 5.68934 0.399301 5.4375 0.709961 5.4375H11.2903C11.601 5.4375 11.8528 5.68934 11.8528 6C11.8528 6.31066 11.601 6.5625 11.2903 6.5625H0.709961C0.399301 6.5625 0.147461 6.31066 0.147461 6Z" fill="currentColor"/>
<path d="M0.709961 8.9375C0.399301 8.9375 0.147461 9.18934 0.147461 9.5C0.147461 9.81066 0.399301 10.0625 0.709961 10.0625H11.2903C11.601 10.0625 11.8528 9.81066 11.8528 9.5C11.8528 9.18934 11.601 8.9375 11.2903 8.9375H0.709961Z" fill="currentColor"/>
</svg>
