<svg width="25" height="24" viewBox="0 0 25 24" fill="none" xmlns="http://www.w3.org/2000/svg">
<path d="M7.92586 8.69641C8.71484 8.69641 9.35443 9.336 9.35443 10.125C9.35443 10.914 8.71484 11.5536 7.92586 11.5536V8.69641Z" fill="#06231C"/>
<path d="M7.92586 8.69641C7.13688 8.69641 6.49725 9.336 6.49725 10.125C6.49725 10.914 7.13688 11.5536 7.92586 11.5536V8.69641Z" fill="#06231C"/>
<path d="M7.92586 14.2946C8.71484 14.2946 9.35443 14.9342 9.35443 15.7232C9.35443 16.5122 8.71484 17.1518 7.92586 17.1518V14.2946Z" fill="#06231C"/>
<path d="M7.92586 14.2946C7.13688 14.2946 6.49725 14.9342 6.49725 15.7232C6.49725 16.5122 7.13688 17.1518 7.92586 17.1518V14.2946Z" fill="#06231C"/>
<path d="M12.8333 8.69641C13.6223 8.69641 14.2619 9.336 14.2619 10.125C14.2619 10.914 13.6223 11.5536 12.8333 11.5536V8.69641Z" fill="#06231C"/>
<path d="M12.8333 8.69641C12.0444 8.69641 11.4047 9.336 11.4047 10.125C11.4047 10.914 12.0444 11.5536 12.8333 11.5536V8.69641Z" fill="#06231C"/>
<path d="M17.7409 9.55355V8.69641C18.5299 8.69641 19.1695 9.336 19.1695 10.125C19.1695 10.914 18.5299 11.5536 17.7409 11.5536V10.6964" fill="#06231C"/>
<path d="M17.7409 9.55355V8.69641C16.9519 8.69641 16.3123 9.336 16.3123 10.125C16.3123 10.914 16.9519 11.5536 17.7409 11.5536V10.6964" fill="#06231C"/>
<path fill-rule="evenodd" clip-rule="evenodd" d="M7.98212 2.2705V1.28571C7.98212 0.733421 8.42983 0.285706 8.98212 0.285706C9.5344 0.285706 9.98212 0.733421 9.98212 1.28571V2.20334C10.9033 2.18092 11.8486 2.16949 12.8333 2.16949C13.814 2.16949 14.7555 2.18083 15.6729 2.20306V1.28571C15.6729 0.733421 16.1206 0.285706 16.6729 0.285706C17.2252 0.285706 17.6729 0.733421 17.6729 1.28571V2.27C18.4709 2.30415 19.2585 2.3468 20.0466 2.39764C21.9948 2.5233 23.5198 4.05376 23.7463 5.94848L23.7684 6.13375C24.0258 8.28459 24.3005 10.5809 24.3005 12.9418C24.3005 15.3028 24.0258 17.5991 23.7685 19.7499L23.7463 19.9352C23.5198 21.8299 21.9948 23.3604 20.0466 23.486C17.73 23.6355 15.4175 23.7142 12.8333 23.7142C10.2492 23.7142 7.93668 23.6355 5.62005 23.486C3.67194 23.3604 2.1469 21.8299 1.9204 19.9352L1.89825 19.75C1.6409 17.5991 1.36615 15.3028 1.36615 12.9418C1.36615 10.5808 1.6409 8.28457 1.89825 6.1337L1.9204 5.94848C2.1469 4.05376 3.67193 2.5233 5.62005 2.39763C6.40431 2.34705 7.1881 2.30456 7.98212 2.2705ZM7.98212 4.27237C7.23174 4.30518 6.49048 4.34564 5.74879 4.39349C4.80611 4.45429 4.02361 5.20427 3.90626 6.18587L3.88921 6.32847C3.62842 8.50905 3.36615 10.7019 3.36615 12.9418C3.36615 15.1817 3.62842 17.3746 3.88921 19.5552L3.90627 19.6978C4.02361 20.6794 4.80611 21.4294 5.74879 21.4902C8.02255 21.6369 10.2921 21.7142 12.8333 21.7142C15.3746 21.7142 17.6441 21.6369 19.9179 21.4902C20.8606 21.4294 21.6431 20.6794 21.7604 19.6978L21.7775 19.5552C22.0383 17.3747 22.3005 15.1817 22.3005 12.9418C22.3005 10.702 22.0383 8.50908 21.7775 6.32852L21.7604 6.18587C21.6431 5.20427 20.8606 4.45429 19.9179 4.39349C19.1724 4.3454 18.4273 4.30476 17.6729 4.27186V5.63859C17.6729 6.19088 17.2252 6.63859 16.6729 6.63859C16.1206 6.63859 15.6729 6.19088 15.6729 5.63859V4.20366C14.7563 4.18104 13.8151 4.16949 12.8333 4.16949C11.8474 4.16949 10.9024 4.18113 9.98212 4.20395V5.63859C9.98212 6.19088 9.5344 6.63859 8.98212 6.63859C8.42983 6.63859 7.98212 6.19088 7.98212 5.63859V4.27237Z" fill="#06231C"/>
</svg>
