<svg width="16" height="16" viewBox="0 0 16 16" fill="none" xmlns="http://www.w3.org/2000/svg">
<path d="M8.66683 2.28581C8.66683 1.91762 8.36835 1.61914 8.00016 1.61914C7.63197 1.61914 7.3335 1.91762 7.3335 2.28581V7.33348H2.28581C1.91762 7.33348 1.61914 7.63196 1.61914 8.00015C1.61914 8.36834 1.91762 8.66682 2.28581 8.66682H7.3335V13.7144C7.3335 14.0826 7.63197 14.381 8.00016 14.381C8.36835 14.381 8.66683 14.0826 8.66683 13.7144V8.66682H13.7144C14.0826 8.66682 14.381 8.36834 14.381 8.00015C14.381 7.63196 14.0826 7.33348 13.7144 7.33348H8.66683V2.28581Z" fill="currentColor"/>
</svg>
