<svg width="25" height="24" viewBox="0 0 25 24" fill="none" xmlns="http://www.w3.org/2000/svg">
<path d="M5.11709 14.4019C5.11709 15.0368 5.1383 15.6652 5.17255 16.2842L5.16202 16.2845L5.24217 17.3321C5.26703 17.657 5.29439 17.9798 5.32292 18.2993C5.35772 18.6893 5.39424 19.0738 5.43016 19.4521L5.43209 19.4725C5.45272 19.6897 5.47314 19.9048 5.49305 20.1186C5.60747 21.3477 6.572 22.3671 7.84305 22.4762C11.0377 22.7505 13.9623 22.7505 17.157 22.4762C17.2951 22.4643 17.4296 22.4417 17.5598 22.4093C18.6286 22.1437 19.4069 21.2143 19.5089 20.1181C19.5286 19.9066 19.5488 19.6938 19.5692 19.4789L19.5718 19.4516C19.6513 18.6144 19.7337 17.7466 19.794 16.8571L19.8378 16.2845L19.8294 16.2842C19.8636 15.6651 19.8849 15.0365 19.8849 14.4015C19.8849 13.7858 19.865 13.178 19.8328 12.5799C21.7914 11.8728 23.2477 10.1019 23.2477 7.93981C23.2477 5.11208 20.7729 2.96638 17.909 2.96638C17.482 2.96638 17.0655 3.01319 16.6655 3.10206C15.656 1.988 14.152 1.29932 12.498 1.29932C12.0099 1.29932 11.5348 1.35931 11.0816 1.47253C9.99954 1.74245 9.04236 2.31578 8.33057 3.10039C7.93289 3.0126 7.51893 2.96638 7.09463 2.96638C6.62023 2.96638 6.1565 3.02525 5.71293 3.13635C3.47777 3.69535 1.75391 5.58029 1.75391 7.9403C1.75391 10.1025 3.21041 11.8735 5.1692 12.5805C5.13696 13.1785 5.11709 13.7863 5.11709 14.4019Z" fill="#06231C"/>
<path d="M16.9297 17.7249C15.3439 17.6702 14.0983 17.6172 12.4235 17.6172C10.7486 17.6172 9.51549 17.6702 7.92969 17.7249" stroke="white" stroke-width="1.4" stroke-linecap="round"/>
</svg>
