<svg width="16" height="16" viewBox="0 0 16 16" fill="none" xmlns="http://www.w3.org/2000/svg">
<path fill-rule="evenodd" clip-rule="evenodd" d="M4.07083 2.04524C4.30491 0.938212 5.28759 0.107422 6.46431 0.107422H9.53574C10.7125 0.107422 11.6951 0.938213 11.9292 2.04524C12.1592 2.07453 12.3865 2.10336 12.6201 2.13163C13.4423 2.23115 14.109 2.89287 14.1704 3.74557C14.4194 7.20605 14.4194 10.4687 14.1704 13.9292C14.1093 14.7774 13.4417 15.4574 12.5922 15.5303C9.43758 15.8011 6.56248 15.8011 3.40785 15.5303C2.55837 15.4574 1.89072 14.7774 1.82967 13.9292C1.58062 10.4687 1.58062 7.20605 1.82967 3.74556C1.89104 2.89288 2.55777 2.23115 3.37997 2.13163C3.60908 2.1039 3.83826 2.07485 4.07083 2.04524ZM4.22383 3.53786C4.00161 3.56614 3.77941 3.59423 3.56021 3.62076C3.42404 3.63725 3.33373 3.74306 3.3258 3.85324C3.08191 7.24203 3.08191 10.4327 3.3258 13.8215C3.33406 13.9362 3.42377 14.0262 3.53612 14.0358C6.60539 14.2992 9.39466 14.2992 12.4639 14.0358C12.5763 14.0262 12.666 13.9362 12.6742 13.8215C12.9181 10.4327 12.9181 7.24203 12.6742 3.85324C12.6663 3.74306 12.576 3.63725 12.4398 3.62076C12.2248 3.59473 12.001 3.56644 11.7762 3.53786C11.3975 4.39899 10.5368 5.00028 9.53574 5.00028H6.46431C5.46323 5.00028 4.60258 4.39899 4.22383 3.53786ZM6.46431 1.60742C5.94161 1.60742 5.51788 2.03115 5.51788 2.55385C5.51788 3.07655 5.94161 3.50028 6.46431 3.50028H9.53574C10.0584 3.50028 10.4822 3.07655 10.4822 2.55385C10.4822 2.03115 10.0584 1.60742 9.53574 1.60742H6.46431ZM5.07141 7.44672C5.07141 7.0325 5.4072 6.69672 5.82141 6.69672H10.1786C10.5928 6.69672 10.9286 7.0325 10.9286 7.44672C10.9286 7.86093 10.5928 8.19672 10.1786 8.19672H5.82141C5.4072 8.19672 5.07141 7.86093 5.07141 7.44672ZM5.07141 10.7681C5.07141 10.3539 5.4072 10.0181 5.82141 10.0181H8.45072C8.86493 10.0181 9.20072 10.3539 9.20072 10.7681C9.20072 11.1823 8.86493 11.5181 8.45072 11.5181H5.82141C5.4072 11.5181 5.07141 11.1823 5.07141 10.7681Z" fill="currentColor"/>
</svg>
