<svg width="16" height="16" viewBox="0 0 16 16" fill="none" xmlns="http://www.w3.org/2000/svg">
<path d="M4.89124 5.8608C7.12263 4.60226 7.25804 4.59167 9.79744 3.87537M4.89124 10.1388C7.12263 11.3973 7.25804 11.4079 9.79744 12.1242M6.20167 7.99979C6.20167 9.34936 5.10763 10.4434 3.75806 10.4434C2.40849 10.4434 1.31445 9.34936 1.31445 7.99979C1.31445 6.65022 2.40849 5.55618 3.75806 5.55618C5.10763 5.55618 6.20167 6.65022 6.20167 7.99979ZM14.6846 3.30054C14.6846 4.65011 13.5906 5.74415 12.241 5.74415C10.8915 5.74415 9.79742 4.65011 9.79742 3.30054C9.79742 1.95098 10.8915 0.856934 12.241 0.856934C13.5906 0.856934 14.6846 1.95098 14.6846 3.30054ZM14.6846 12.699C14.6846 14.0486 13.5906 15.1427 12.241 15.1427C10.8915 15.1427 9.79742 14.0486 9.79742 12.699C9.79742 11.3495 10.8915 10.2554 12.241 10.2554C13.5906 10.2554 14.6846 11.3495 14.6846 12.699Z" stroke="#06231C" stroke-width="1.5" stroke-linecap="round" stroke-linejoin="round"/>
</svg>
