<svg width="13" height="12" viewBox="0 0 13 12" fill="currentColor" xmlns="http://www.w3.org/2000/svg">
<path d="M7.06247 3.86787C7.06247 3.55721 6.81063 3.30537 6.49997 3.30537C6.1893 3.30537 5.93747 3.55721 5.93747 3.86787H7.06247ZM6.49997 6.01073H5.93747C5.93747 6.15991 5.99673 6.30298 6.10222 6.40847L6.49997 6.01073ZM7.38793 7.69419C7.6076 7.91386 7.96376 7.91386 8.18343 7.69419C8.4031 7.47452 8.4031 7.11836 8.18343 6.89869L7.38793 7.69419ZM11.2946 6.00021C11.2946 8.64822 9.14797 10.7949 6.49997 10.7949V11.9199C9.76929 11.9199 12.4196 9.26954 12.4196 6.00021H11.2946ZM6.49997 10.7949C3.85196 10.7949 1.70532 8.64822 1.70532 6.00021H0.580322C0.580322 9.26954 3.23064 11.9199 6.49997 11.9199V10.7949ZM1.70532 6.00021C1.70532 3.3522 3.85196 1.20557 6.49997 1.20557V0.0805664C3.23064 0.0805664 0.580322 2.73088 0.580322 6.00021H1.70532ZM6.49997 1.20557C9.14797 1.20557 11.2946 3.3522 11.2946 6.00021H12.4196C12.4196 2.73088 9.76929 0.0805664 6.49997 0.0805664V1.20557ZM5.93747 3.86787V6.01073H7.06247V3.86787H5.93747ZM6.10222 6.40847L7.38793 7.69419L8.18343 6.89869L6.89771 5.61298L6.10222 6.40847Z" fill="currentColor"/>
</svg>
