<svg width="16" height="16" viewBox="0 0 16 16" fill="none" xmlns="http://www.w3.org/2000/svg">
<path fill-rule="evenodd" clip-rule="evenodd" d="M12.1569 0.290039C11.1075 0.290039 10.2074 0.64331 9.58203 1.37813C8.97058 2.09665 8.69678 3.09231 8.69678 4.23932C8.69678 5.38633 8.97058 6.38198 9.58203 7.1005C10.0704 7.6744 10.7264 8.01556 11.4902 8.13747V15.0424C11.4902 15.4106 11.7887 15.709 12.1569 15.709C12.5251 15.709 12.8236 15.4106 12.8236 15.0424V8.13747C13.5874 8.01556 14.2434 7.6744 14.7318 7.1005C15.3432 6.38198 15.617 5.38633 15.617 4.23932C15.617 3.09231 15.3432 2.09665 14.7318 1.37813C14.1064 0.64331 13.2063 0.290039 12.1569 0.290039ZM10.0301 4.23932C10.0301 3.28546 10.2591 2.63981 10.5975 2.24224C10.9219 1.86097 11.4185 1.62337 12.1569 1.62337C12.8953 1.62337 13.3919 1.86097 13.7163 2.24224C14.0547 2.63981 14.2837 3.28546 14.2837 4.23932C14.2837 5.19318 14.0547 5.83882 13.7163 6.23639C13.3919 6.61766 12.8953 6.85526 12.1569 6.85526C11.4185 6.85526 10.9219 6.61766 10.5975 6.23639C10.2591 5.83882 10.0301 5.19318 10.0301 4.23932Z" fill="currentColor"/>
<path d="M4.46639 1.05375C4.46639 0.685562 4.16791 0.387085 3.79972 0.387085C3.43153 0.387085 3.13306 0.685562 3.13306 1.05375V6.76887C2.31304 6.51922 1.71639 5.75693 1.71639 4.85528V1.17875C1.71639 0.810562 1.41791 0.512085 1.04972 0.512085C0.681533 0.512085 0.383057 0.810562 0.383057 1.17875V4.85528C0.383057 6.49723 1.57024 7.8619 3.13306 8.13774V15.0424C3.13306 15.4106 3.43153 15.709 3.79972 15.709C4.16791 15.709 4.46639 15.4106 4.46639 15.0424V8.13774C6.02921 7.8619 7.21639 6.49723 7.21639 4.85528V1.17875C7.21639 0.810562 6.91791 0.512085 6.54972 0.512085C6.18153 0.512085 5.88306 0.810562 5.88306 1.17875V4.85528C5.88306 5.75693 5.28641 6.51922 4.46639 6.76887V1.05375Z" fill="currentColor"/>
<path fill-rule="evenodd" clip-rule="evenodd" d="M12.1569 0.290039C11.1075 0.290039 10.2074 0.64331 9.58203 1.37813C8.97058 2.09665 8.69678 3.09231 8.69678 4.23932C8.69678 5.38633 8.97058 6.38198 9.58203 7.1005C10.0704 7.6744 10.7264 8.01556 11.4902 8.13747V15.0424C11.4902 15.4106 11.7887 15.709 12.1569 15.709C12.5251 15.709 12.8236 15.4106 12.8236 15.0424V8.13747C13.5874 8.01556 14.2434 7.6744 14.7318 7.1005C15.3432 6.38198 15.617 5.38633 15.617 4.23932C15.617 3.09231 15.3432 2.09665 14.7318 1.37813C14.1064 0.64331 13.2063 0.290039 12.1569 0.290039ZM10.0301 4.23932C10.0301 3.28546 10.2591 2.63981 10.5975 2.24224C10.9219 1.86097 11.4185 1.62337 12.1569 1.62337C12.8953 1.62337 13.3919 1.86097 13.7163 2.24224C14.0547 2.63981 14.2837 3.28546 14.2837 4.23932C14.2837 5.19318 14.0547 5.83882 13.7163 6.23639C13.3919 6.61766 12.8953 6.85526 12.1569 6.85526C11.4185 6.85526 10.9219 6.61766 10.5975 6.23639C10.2591 5.83882 10.0301 5.19318 10.0301 4.23932Z" stroke="currentColor"/>
<path d="M4.46639 1.05375C4.46639 0.685562 4.16791 0.387085 3.79972 0.387085C3.43153 0.387085 3.13306 0.685562 3.13306 1.05375V6.76887C2.31304 6.51922 1.71639 5.75693 1.71639 4.85528V1.17875C1.71639 0.810562 1.41791 0.512085 1.04972 0.512085C0.681533 0.512085 0.383057 0.810562 0.383057 1.17875V4.85528C0.383057 6.49723 1.57024 7.8619 3.13306 8.13774V15.0424C3.13306 15.4106 3.43153 15.709 3.79972 15.709C4.16791 15.709 4.46639 15.4106 4.46639 15.0424V8.13774C6.02921 7.8619 7.21639 6.49723 7.21639 4.85528V1.17875C7.21639 0.810562 6.91791 0.512085 6.54972 0.512085C6.18153 0.512085 5.88306 0.810562 5.88306 1.17875V4.85528C5.88306 5.75693 5.28641 6.51922 4.46639 6.76887V1.05375Z" stroke="currentColor"/>
</svg>
